<mxfile host="app.diagrams.net" modified="2024-03-06T01:16:18.119Z" agent="Mozilla/5.0 (Macintosh; Intel Mac OS X 10_15_7) AppleWebKit/605.1.15 (KHTML, like Gecko) Version/17.3.1 Safari/605.1.15" etag="HuHvDpmO7gQeq_Qnwx1f" version="24.0.2" type="github">
  <diagram name="Page-1" id="fDzdxHZvuhFJxoay-ObD">
    <mxGraphModel dx="1570" dy="948" grid="1" gridSize="10" guides="1" tooltips="1" connect="1" arrows="1" fold="1" page="1" pageScale="1" pageWidth="1100" pageHeight="850" math="0" shadow="0">
      <root>
        <mxCell id="0" />
        <mxCell id="1" parent="0" />
        <mxCell id="NoLDuvIoNGPkwHfxKqSU-2" value="Azure: US East Region" style="swimlane;whiteSpace=wrap;html=1;fillColor=#99CCFF;" parent="1" vertex="1">
          <mxGeometry x="40" y="30" width="1040" height="760" as="geometry" />
        </mxCell>
        <mxCell id="NoLDuvIoNGPkwHfxKqSU-4" value="&lt;b style=&quot;text-align: start;&quot;&gt;&lt;span style=&quot;line-height: 15.693334px; font-family: Calibri, sans-serif;&quot;&gt;neubank-dev-rg-eus&lt;br&gt;&lt;/span&gt;&lt;/b&gt;&lt;b style=&quot;text-align: start;&quot;&gt;&lt;span style=&quot;line-height: 15.693334px; font-family: Calibri, sans-serif;&quot;&gt;&lt;font style=&quot;font-size: 10px;&quot;&gt;(Resource Group)&lt;/font&gt;&lt;br&gt;&lt;/span&gt;&lt;/b&gt;" style="swimlane;whiteSpace=wrap;html=1;startSize=38;fillColor=#3399FF;" parent="NoLDuvIoNGPkwHfxKqSU-2" vertex="1">
          <mxGeometry x="40" y="50" width="960" height="680" as="geometry" />
        </mxCell>
        <mxCell id="aUUkp6z2Ffg6O78OrMZu-5" value="" style="image;aspect=fixed;html=1;points=[];align=center;fontSize=12;image=img/lib/azure2/databases/Cache_Redis.svg;" vertex="1" parent="NoLDuvIoNGPkwHfxKqSU-4">
          <mxGeometry x="438" y="524.5" width="64" height="52" as="geometry" />
        </mxCell>
        <mxCell id="aUUkp6z2Ffg6O78OrMZu-7" value="" style="image;aspect=fixed;html=1;points=[];align=center;fontSize=12;image=img/lib/azure2/devops/Application_Insights.svg;" vertex="1" parent="NoLDuvIoNGPkwHfxKqSU-4">
          <mxGeometry x="133" y="519" width="44" height="63" as="geometry" />
        </mxCell>
        <mxCell id="aUUkp6z2Ffg6O78OrMZu-19" value="Data Layer" style="swimlane;horizontal=0;whiteSpace=wrap;html=1;fillColor=#e1d5e7;strokeColor=#9673a6;" vertex="1" parent="NoLDuvIoNGPkwHfxKqSU-4">
          <mxGeometry x="670" y="80" width="250" height="400" as="geometry" />
        </mxCell>
        <mxCell id="aUUkp6z2Ffg6O78OrMZu-3" value="" style="image;aspect=fixed;html=1;points=[];align=center;fontSize=12;image=img/lib/azure2/databases/SQL_Database.svg;" vertex="1" parent="aUUkp6z2Ffg6O78OrMZu-19">
          <mxGeometry x="94" y="160" width="48" height="64" as="geometry" />
        </mxCell>
        <mxCell id="aUUkp6z2Ffg6O78OrMZu-4" value="" style="image;aspect=fixed;html=1;points=[];align=center;fontSize=12;image=img/lib/azure2/databases/SQL_Server.svg;" vertex="1" parent="aUUkp6z2Ffg6O78OrMZu-19">
          <mxGeometry x="91" y="48" width="68" height="68" as="geometry" />
        </mxCell>
        <mxCell id="aUUkp6z2Ffg6O78OrMZu-6" value="" style="image;aspect=fixed;html=1;points=[];align=center;fontSize=12;image=img/lib/azure2/storage/Storage_Accounts.svg;" vertex="1" parent="aUUkp6z2Ffg6O78OrMZu-19">
          <mxGeometry x="92.5" y="290" width="65" height="52" as="geometry" />
        </mxCell>
        <mxCell id="aUUkp6z2Ffg6O78OrMZu-22" value="Application Layer" style="swimlane;horizontal=0;whiteSpace=wrap;html=1;fillColor=#f8cecc;strokeColor=#b85450;" vertex="1" parent="NoLDuvIoNGPkwHfxKqSU-4">
          <mxGeometry x="355" y="80" width="250" height="400" as="geometry" />
        </mxCell>
        <mxCell id="aUUkp6z2Ffg6O78OrMZu-1" value="" style="image;aspect=fixed;html=1;points=[];align=center;fontSize=12;image=img/lib/azure2/app_services/App_Service_Plans.svg;" vertex="1" parent="aUUkp6z2Ffg6O78OrMZu-22">
          <mxGeometry x="91" y="48" width="68" height="68" as="geometry" />
        </mxCell>
        <mxCell id="aUUkp6z2Ffg6O78OrMZu-2" value="" style="image;aspect=fixed;html=1;points=[];align=center;fontSize=12;image=img/lib/azure2/app_services/App_Services.svg;" vertex="1" parent="aUUkp6z2Ffg6O78OrMZu-22">
          <mxGeometry x="91" y="160" width="68" height="68" as="geometry" />
        </mxCell>
        <mxCell id="aUUkp6z2Ffg6O78OrMZu-23" value="Presentation Layer" style="swimlane;horizontal=0;whiteSpace=wrap;html=1;fillColor=#d5e8d4;strokeColor=#82b366;" vertex="1" parent="NoLDuvIoNGPkwHfxKqSU-4">
          <mxGeometry x="30" y="80" width="250" height="400" as="geometry" />
        </mxCell>
        <mxCell id="aUUkp6z2Ffg6O78OrMZu-24" value="&lt;font style=&quot;font-size: 10px;&quot;&gt;&lt;b style=&quot;text-align: start;&quot;&gt;&lt;span style=&quot;line-height: 15.693334px; font-family: Calibri, sans-serif;&quot;&gt;neubank-&amp;lt;env&amp;gt;-vnet-&amp;lt;region&amp;gt;&lt;br&gt;&lt;/span&gt;&lt;/b&gt;&lt;span style=&quot;font-family: -webkit-standard; font-weight: 400; text-align: start;&quot;&gt;&lt;/span&gt;Virtual Network&lt;/font&gt;" style="swimlane;whiteSpace=wrap;html=1;startSize=48;fillColor=#dae8fc;strokeColor=#6c8ebf;" vertex="1" parent="aUUkp6z2Ffg6O78OrMZu-23">
          <mxGeometry x="40" y="10" width="190" height="300" as="geometry" />
        </mxCell>
        <mxCell id="NoLDuvIoNGPkwHfxKqSU-6" value="" style="image;aspect=fixed;html=1;points=[];align=center;fontSize=12;image=img/lib/azure2/app_services/App_Services.svg;" parent="aUUkp6z2Ffg6O78OrMZu-24" vertex="1">
          <mxGeometry x="51" y="180" width="68" height="68" as="geometry" />
        </mxCell>
        <mxCell id="NoLDuvIoNGPkwHfxKqSU-5" value="" style="image;aspect=fixed;html=1;points=[];align=center;fontSize=12;image=img/lib/azure2/app_services/App_Service_Plans.svg;" parent="aUUkp6z2Ffg6O78OrMZu-24" vertex="1">
          <mxGeometry x="61" y="60" width="68" height="68" as="geometry" />
        </mxCell>
      </root>
    </mxGraphModel>
  </diagram>
</mxfile>
